<svg xmlns="http://www.w3.org/2000/svg" version="1.1" xmlns:xlink="http://www.w3.org/1999/xlink" xmlns:svgjs="http://svgjs.dev/svgjs" width="1000" height="1000" viewBox="0 0 1000 1000"><rect width="1000" height="1000" fill="#000000"></rect><g transform="matrix(0.7,0,0,0.7,149.57575757575756,282.1265587044535)"><svg viewBox="0 0 396 247" data-background-color="#102e44" preserveAspectRatio="xMidYMid meet" height="623" width="1000" xmlns="http://www.w3.org/2000/svg" xmlns:xlink="http://www.w3.org/1999/xlink"><g id="tight-bounds" transform="matrix(1,0,0,1,0.2400000000000091,-0.09999999999999432)"><svg viewBox="0 0 395.52 247.2" height="247.2" width="395.52"><g><svg></svg></g><g><svg viewBox="0 0 395.52 247.2" height="247.2" width="395.52"><g transform="matrix(1,0,0,1,75.54432,87.06459078891346)"><svg viewBox="0 0 244.43135999999998 73.07081842217306" height="73.07081842217306" width="244.43135999999998"><g><svg viewBox="0 0 244.43135999999998 73.07081842217306" height="73.07081842217306" width="244.43135999999998"><g><svg viewBox="0 0 244.43135999999998 73.07081842217306" height="73.07081842217306" width="244.43135999999998"><g><svg viewBox="0 0 244.43135999999998 73.07081842217306" height="73.07081842217306" width="244.43135999999998"><g><svg viewBox="0 0 244.43135999999998 73.07081842217306" height="73.07081842217306" width="244.43135999999998"><path d="M243.859 15.672C242.71 8.088 239.435 5.979 239.435 5.979 229.38-1.833 216.832-0.149 205.559 0.973 185.656 1.019 165.834 2.687 145.977 3.582 104.298 3.719 62.263 1.474 20.791 7.011 16.896 8.71-4.041 7.344 0.693 16.643 1.934 20.511 6.462 24.804 6.324 28.354 6.944 28.976 7.806 27.55 8.174 28.445 9.461 30.857 11.564 29.719 13.287 31.145 10.886 34.953 12.609 38.123 14.253 41.445 11.357 42.31 7.645 41.9 5.979 44.767 5.807 46.846 4.876 46.451 3.853 46.36 3.106 46.299 1.601 46.527 1.854 47.179 2.715 49.409-0.985 50.699 1.336 52.883-0.261 55.249 2.44 57.297 2.072 59.861 2.026 60.377 2.279 60.817 2.681 60.938 4.462 61.59 1.865 62.864 2.141 64.245 20.412 73.68 40.234 67.157 58.954 71.496 63.814 68.462 60.16 72.573 62.102 71.936 63.619 71.192 64.722 74.272 66.434 72.527 66.699 72.027 66.296 70.844 67.239 71.071 67.733 71.192 68.169 71.162 68.238 70.464 68.342 69.418 67.434 70.07 67.193 69.524 69.801 66.763 69.158 73.331 71.605 73.058 71.49 72.254 70.778 71.101 72.237 71.253 73.685 70.1 73.731 69.145 75.018 71.739 75.064 72.3 75.294 72.694 75.662 72.967 79.684 70.146 83.683 73.968 87.9 72.694 90.485 71.299 92.968 73.453 95.588 72.922 96.507 72.497 97.438 71.739 98.323 73.013 109.159 73.286 120.707 72.148 130.981 73.058 158.433 71.359 187.77 73.756 216.717 71.511 223.543 70.646 230.633 69.418 237.286 68.432 237.286 68.432 242.675 65.731 242.675 53.596S243.825 42.977 243.997 33.314C244.169 23.651 244.974 23.257 243.825 15.672Z" opacity="1" fill="#ffffff" data-fill-palette-color="tertiary"></path><g transform="matrix(1,0,0,1,34.46482176,16.210552)"><svg width="175.50171647999997" viewBox="1.5 -40.2 230.54 53.400000000000006" height="40.64971442217306" data-palette-color="#102e44"><path d="M41.1-40.2L41.1-25.7 37.6-24.2 30.35-34.55 26.6-34.55 26.6-5.35 32.35-4 30.35 0 11.15 0 11.15-3.55 15.85-7.25 15.85-34.55 12.25-34.55 5-24.2 1.5-25.7 1.5-40.2 5.65-39.3 36.95-39.3 41.1-40.2ZM73.85-4L71.85 0 59.35 0 59.35-4.35 53.7 0.1Q52.7 0.5 51.2 0.5L51.2 0.5Q46.1 0.5 43.82-1.98 41.55-4.45 41.55-7.95L41.55-7.95Q41.55-9.95 42.7-11.88 43.85-13.8 46.05-15.45L46.05-15.45 59.35-15.45Q59.2-17.65 57.85-18.78 56.5-19.9 54.45-19.9L54.45-19.9Q51-19.9 44.35-17.8L44.35-17.8 42.85-21.2 49.7-26.7Q52.45-27.65 56.3-27.65L56.3-27.65Q62.5-27.65 65.95-24.93 69.4-22.2 69.4-16.95L69.4-16.95 69.4-5.75 73.85-4ZM54.25-7.75Q56.45-7.75 59.35-9.45L59.35-9.45 59.35-11.4 51.75-11.4Q51.5-10.95 51.4-10.63 51.3-10.3 51.3-9.8L51.3-9.8Q51.3-8.85 52.07-8.3 52.85-7.75 54.3-7.75L54.3-7.75 54.25-7.75ZM111.85-4.05L109.85-0.05 97.35-0.05 97.35-15.5Q97.35-17.65 96.72-18.55 96.1-19.45 94.55-19.45L94.55-19.45Q92.4-19.45 90.35-18.4L90.35-18.4 90.35-5.4 94.85-4 92.85 0 75.9 0 75.9-3.55 80.35-7.45 80.35-17.2 75.9-20.1 75.9-23.65 87.45-28.1 89.55-22.7 95.2-27.25Q96.55-27.65 98.45-27.65L98.45-27.65Q102.55-27.65 104.95-25.58 107.35-23.5 107.35-19.95L107.35-19.95 107.35-5.4 111.85-4.05ZM164.89-4L162.89 0 150.39 0 150.39-16.45Q150.39-18.1 149.89-18.75 149.39-19.4 148.09-19.4L148.09-19.4Q146.19-19.4 144.34-18.4L144.34-18.4 144.34-5.3 148.34-4 146.34 0 134.34 0 134.34-16.45Q134.34-18.1 133.84-18.75 133.34-19.4 132.04-19.4L132.04-19.4Q130.14-19.4 128.29-18.4L128.29-18.4 128.29-5.3 132.29-4 130.29 0 113.84 0 113.84-3.55 118.29-7.45 118.29-17.2 113.84-20.1 113.84-23.65 125.39-28.1 127.49-22.7 133.14-27.25Q134.24-27.65 135.89-27.65L135.89-27.65Q138.84-27.65 140.89-26.43 142.94-25.2 143.79-22.95L143.79-22.95 149.14-27.25Q150.24-27.65 151.89-27.65L151.89-27.65Q155.74-27.65 158.02-25.58 160.29-23.5 160.29-19.95L160.29-19.95 160.29-5.4 164.89-4ZM199.29-4L197.29 0 184.79 0 184.79-4.35 179.14 0.1Q178.14 0.5 176.64 0.5L176.64 0.5Q171.54 0.5 169.27-1.98 166.99-4.45 166.99-7.95L166.99-7.95Q166.99-9.95 168.14-11.88 169.29-13.8 171.49-15.45L171.49-15.45 184.79-15.45Q184.64-17.65 183.29-18.78 181.94-19.9 179.89-19.9L179.89-19.9Q176.44-19.9 169.79-17.8L169.79-17.8 168.29-21.2 175.14-26.7Q177.89-27.65 181.74-27.65L181.74-27.65Q187.94-27.65 191.39-24.93 194.84-22.2 194.84-16.95L194.84-16.95 194.84-5.75 199.29-4ZM179.69-7.75Q181.89-7.75 184.79-9.45L184.79-9.45 184.79-11.4 177.19-11.4Q176.94-10.95 176.84-10.63 176.74-10.3 176.74-9.8L176.74-9.8Q176.74-8.85 177.52-8.3 178.29-7.75 179.74-7.75L179.74-7.75 179.69-7.75ZM232.04-27.15L232.04-23.6 219.09 0 206.54 13.2 202.64 10.2Q206.14 5.8 207.61 2.63 209.09-0.55 209.44-4.45L209.44-4.45 204.14-17.4 199.09-20.35 199.09-23.9 211.64-28.1 213.54-20.55 218.64-8.25 224.04-18.35 216.59-23.15 218.59-27.15 232.04-27.15Z" opacity="1" transform="matrix(1,0,0,1,0,0)" fill="#102e44" class="undefined-text-0" data-fill-palette-color="quaternary" id="text-0"></path></svg></g></svg></g></svg></g></svg></g><g></g></svg></g></svg></g><g><path d="M84.585 77.468A122.216 122.216 0 0 1 310.935 77.468L307.269 77.468A118.55 118.55 0 0 0 88.251 77.468L84.585 77.468M84.585 169.732A122.216 122.216 0 0 0 310.935 169.732L307.269 169.732A118.55 118.55 0 0 1 88.251 169.732L84.585 169.732" fill="#ffffff" stroke="transparent" data-fill-palette-color="tertiary"></path></g></svg></g><defs></defs></svg><rect width="395.52" height="247.2" fill="none" stroke="none" visibility="hidden"></rect></g></svg></g></svg>